<?xml version="1.0" standalone="no"?>
<!DOCTYPE svg PUBLIC "-//W3C//DTD SVG 20010904//EN"
 "http://www.w3.org/TR/2001/REC-SVG-20010904/DTD/svg10.dtd">
<svg version="1.0" xmlns="http://www.w3.org/2000/svg"
 width="700.000000pt" height="700.000000pt" viewBox="0 0 700.000000 700.000000"
 preserveAspectRatio="xMidYMid meet">
 <g
   transform="translate(0.000000,700.000000) scale(0.100000,-0.100000)"
   fill="#000000" stroke="none">
   <path d="M3841 6991 c-54 -14 -113 -43 -166 -82 -27 -21 -414 -402 -860 -848 l-810 -811 -810 0 c-644 0 -820 -3 -860 -14 -81 -21 -155 -65 -210 -122 -46 -48 -62 -73 -106 -169 -21 -46 -25 -2785 -5 -2863 40 -150 145 -261 291 -310 58 -20 88 -20 879 -21 451 -1 821 -2 822 -4 2 -1 380 -378 841 -838 886 -884 861 -861 986 -895 62 -16 188 -11 247 10 141 52 247 170 283 316 11 45 13 602 12 3180 l-2 3125 -23 60 c-69 180 -209 282 -395 290 -44 2 -95 0 -114 -4z"/>
   <path d="M5905 6119 c-73 -14 -118 -35 -340 -164 -121 -70 -229 -133 -240 -139 -211 -116 -375 -219 -417 -261 -130 -131 -162 -331 -79 -500 108 -219 391 -306 605 -186 85 49 444 256 466 269 14 9 39 23 55 32 165 89 294 172 337 218 114 122 150 291 94 449 -67 191 -284 318 -481 282z"/>
   <path d="M5579 3921 c-194 -49 -327 -221 -327 -425 0 -184 114 -342 298 -412 40 -16 102 -18 549 -20 547 -2 576 0 674 53 145 79 239 257 223 422 -16 172 -126 312 -296 377 -40 16 -101 18 -551 19 -436 2 -515 0 -570 -14z"/>
   <path d="M5133 2179 c-72 -13 -167 -65 -222 -121 -171 -172 -170 -450 1 -618 37 -36 121 -91 258 -167 20 -11 92 -53 160 -93 69 -40 150 -86 180 -103 30 -17 67 -38 82 -49 14 -10 29 -18 32 -18 3 0 34 -17 68 -38 87 -52 125 -69 194 -85 97 -22 203 -8 298 40 38 20 50 29 107 87 129 131 158 331 72 500 -49 96 -113 149 -333 273 -125 71 -451 260 -482 279 -21 13 -40 24 -43 24 -2 0 -26 13 -52 29 -94 57 -216 80 -320 60z"/>
 </g>
</svg>
